<svg width="24" height="24" viewBox="0 0 24 24" fill="none" xmlns="http://www.w3.org/2000/svg">
<path d="M23.2929 11.0703C23.0184 10.7455 22.678 10.4827 22.2942 10.2994C21.9104 10.1162 21.4921 10.0166 21.0669 10.0073C21.5887 8.05672 21.9015 6.05612 21.9999 4.03933L22.0429 2.95033L20.9539 2.99933C19.7261 3.06525 18.5032 3.20416 17.2919 3.41533C17.7791 2.34351 18.021 1.17649 17.9999 -0.00067218H15.9999C16.011 0.770553 15.8753 1.53685 15.5999 2.25733C15.4098 1.85214 15.1517 1.48247 14.8369 1.16433C14.1379 0.467029 13.2047 0.054307 12.2185 0.00626304C11.2323 -0.041781 10.2634 0.27828 9.49991 0.904328C8.75887 0.291486 7.82054 -0.0314782 6.85929 -0.00454523C5.89805 0.0223877 4.97928 0.397386 4.27372 1.05076C3.56816 1.70413 3.1238 2.59144 3.02322 3.54779C2.92265 4.50414 3.1727 5.46447 3.72691 6.25033C3.16174 6.73405 2.71368 7.33967 2.41645 8.02162C2.11921 8.70356 1.98055 9.44404 2.01091 10.1873C1.34309 10.4123 0.777613 10.8684 0.416406 11.4735C0.0551986 12.0785 -0.0779703 12.7927 0.0409063 13.4873C0.382465 15.695 1.24328 17.7901 2.55254 19.6003C3.86179 21.4104 5.58209 22.8838 7.57191 23.8993L7.77191 23.9993H16.2229L16.4229 23.8993C18.4134 22.8833 20.1341 21.4089 21.4433 19.5977C22.7524 17.7864 23.6126 15.6901 23.9529 13.4813C24.0251 13.0556 24.0034 12.6193 23.8894 12.2029C23.7754 11.7864 23.5718 11.3999 23.2929 11.0703ZM18.9729 9.99933H16.4139L17.7069 8.70633L16.2919 7.29233L13.5849 9.99933H12.0359C11.9629 9.47338 12.0131 8.93767 12.1825 8.43443C12.3519 7.93118 12.6358 7.47414 13.0119 7.09933C14.1439 5.96733 17.4759 5.31533 19.9189 5.08333C19.785 6.75175 19.4677 8.40035 18.9729 9.99933ZM3.99991 9.99933C3.99991 9.20368 4.31598 8.44062 4.87859 7.87801C5.4412 7.3154 6.20426 6.99933 6.99991 6.99933C7.79556 6.99933 8.55862 7.3154 9.12123 7.87801C9.68384 8.44062 9.99991 9.20368 9.99991 9.99933H3.99991ZM5.57791 2.57833C5.94868 2.2087 6.45086 2.00114 6.97441 2.00114C7.49795 2.00114 8.00014 2.2087 8.37091 2.57833C8.46591 2.67833 9.49891 3.80833 9.49891 3.80833C9.49891 3.80833 10.5329 2.67433 10.6269 2.57933C10.9199 2.28164 11.3004 2.08534 11.7128 2.01907C12.1252 1.9528 12.548 2.02001 12.9195 2.21091C13.2911 2.40181 13.5919 2.70641 13.7781 3.08029C13.9644 3.45417 14.0263 3.87777 13.9549 4.28933C12.6282 4.69415 11.4958 5.5711 10.7719 6.75433C10.1396 6.00709 9.29867 5.46562 8.35676 5.19928C7.41484 4.93294 6.41486 4.95385 5.48491 5.25933C5.15959 4.88302 4.98841 4.39772 5.00566 3.90059C5.0229 3.40346 5.22729 2.93119 5.57791 2.57833ZM21.9849 13.1513C21.6908 15.0019 20.9781 16.761 19.9011 18.2944C18.824 19.8277 17.411 21.0949 15.7699 21.9993H8.22891C6.58761 21.0949 5.17454 19.8275 4.09747 18.294C3.02039 16.7604 2.30775 15.0012 2.01391 13.1503C1.99004 13.0106 1.99729 12.8674 2.03514 12.7309C2.073 12.5943 2.14053 12.4678 2.23291 12.3603C2.32816 12.2473 2.44696 12.1564 2.581 12.094C2.71503 12.0317 2.86107 11.9994 3.00891 11.9993H20.9899C21.1377 11.9994 21.2838 12.0317 21.4178 12.094C21.5519 12.1564 21.6707 12.2473 21.7659 12.3603C21.8581 12.4681 21.9255 12.5948 21.9634 12.7315C22.0012 12.8682 22.0086 13.0115 21.9849 13.1513Z" fill="#01B2C6"/>
</svg>
