<svg width="24" height="24" viewBox="0 0 24 24" fill="none" xmlns="http://www.w3.org/2000/svg">
<g clip-path="url(#clip0_618_6557)">
<path d="M12.9966 9.22885C12.9966 10.3007 11.3997 11.9925 10.0025 13.1023C8.60522 11.9925 7.00833 10.3007 7.00833 9.22885C6.9585 8.62421 7.40264 8.09124 8.00639 8.0312C8.52164 7.9952 8.96845 8.38374 9.00445 8.89895C9.0075 8.94231 9.0075 8.98585 9.00445 9.02926H11.0005C10.9645 8.51401 11.3531 8.0672 11.8683 8.0312C11.9116 8.02815 11.9552 8.02815 11.9986 8.0312C12.602 8.09171 13.0459 8.62435 12.9966 9.22885ZM24.0001 22.5887L22.5889 23.9999L16.3391 17.7502C12.065 21.2448 5.76722 20.613 2.27254 16.3389C-1.22213 12.0649 -0.590299 5.76709 3.68381 2.27242C7.95792 -1.22224 14.2557 -0.590417 17.7503 3.68364C20.7605 7.36511 20.7605 12.6575 17.7503 16.3389L24.0001 22.5887ZM14.9927 9.22885C15.0437 7.52167 13.7055 6.09423 11.9985 6.03507C11.253 6.03845 10.5376 6.33029 10.0025 6.84948C9.46678 6.33109 8.75179 6.03939 8.00639 6.03507C6.2992 6.09367 4.96069 7.52143 5.01225 9.22885C5.01225 11.9655 8.97351 14.8469 9.42562 15.1662L10.0025 15.5744L10.5784 15.1662C11.0304 14.8469 14.9927 11.9655 14.9927 9.22885Z" fill="#01B2C6"/>
</g>
<defs>
<clipPath id="clip0_618_6557">
<rect width="24" height="24" fill="white"/>
</clipPath>
</defs>
</svg>
