<svg width="24" height="24" viewBox="0 0 24 24" fill="none" xmlns="http://www.w3.org/2000/svg">
<path d="M24.0001 22.5888L17.7503 16.339C21.2449 12.065 20.6131 5.76716 16.3391 2.27248C12.065 -1.22219 5.76721 -0.59036 2.27255 3.68375C-1.22212 7.95786 -0.590295 14.2556 3.68376 17.7503C7.36523 20.7604 12.6576 20.7604 16.339 17.7503L22.5889 24L24.0001 22.5888ZM10.0274 18.0117C5.61773 18.0117 2.043 14.437 2.043 10.0273C2.043 5.61767 5.61773 2.04294 10.0274 2.04294C14.4371 2.04294 18.0118 5.61767 18.0118 10.0273C18.0068 14.435 14.435 18.0068 10.0274 18.0117ZM11.9985 6.03514C11.2719 6.02628 10.5673 6.28447 10.0184 6.76072C9.45777 6.28301 8.74279 6.0252 8.00634 6.03514C6.29915 6.09373 4.96064 7.5215 5.0122 9.22892C5.0122 11.9656 8.97346 14.8469 9.42557 15.1663L10.0025 15.5745L10.5783 15.1663C11.0304 14.8469 14.9927 11.9655 14.9927 9.22892C15.0437 7.52169 13.7055 6.09425 11.9985 6.03514ZM10.0025 13.1023C8.60521 11.9925 7.00832 10.3008 7.00832 9.22892C6.95849 8.62428 7.40263 8.09131 8.00638 8.03126C8.53546 7.99606 8.99291 8.39647 9.02812 8.92555C9.03041 8.96009 9.03083 8.99473 9.02938 9.02928H11.0255C10.9785 8.52598 11.3485 8.08001 11.8518 8.03309C11.9006 8.02855 11.9496 8.02794 11.9985 8.03122C12.602 8.09178 13.0459 8.62437 12.9966 9.22887C12.9966 10.3008 11.3957 11.9925 10.0025 13.1023Z" fill="#9098B1"/>
</svg>
