<svg width="24" height="24" viewBox="0 0 24 24" fill="none" xmlns="http://www.w3.org/2000/svg">
<path d="M23.1208 7.1221L20.7068 4.7071L22.7068 2.7071L21.2928 1.2931L19.2928 3.2931L16.8788 0.879103C16.6003 0.600474 16.2695 0.37945 15.9055 0.228654C15.5415 0.0778583 15.1514 0.000244141 14.7573 0.000244141C14.3633 0.000244141 13.9732 0.0778583 13.6092 0.228654C13.2452 0.37945 12.9144 0.600474 12.6358 0.879103L9.80785 3.7071L14.3428 8.2431L8.24285 14.3431L3.70685 9.8081L0.878848 12.6361C0.316434 13.1987 0.000488281 13.9616 0.000488281 14.7571C0.000488281 15.5526 0.316434 16.3155 0.878848 16.8781L3.29285 19.2931L1.29285 21.2931L2.70685 22.7071L4.70685 20.7071L7.12085 23.1211C7.39943 23.3997 7.73017 23.6208 8.09418 23.7716C8.45819 23.9223 8.84834 24 9.24235 24C9.63636 24 10.0265 23.9223 10.3905 23.7716C10.7545 23.6208 11.0853 23.3997 11.3638 23.1211L14.1918 20.2931L9.65685 15.7571L15.7568 9.6571L20.2918 14.1921L23.1198 11.3641C23.6823 10.8015 23.9982 10.0386 23.9982 9.2431C23.9982 8.44761 23.6823 7.68469 23.1198 7.1221H23.1208ZM9.94985 21.7071C9.85697 21.8001 9.74669 21.8738 9.62529 21.9242C9.50389 21.9745 9.37376 22.0004 9.24235 22.0004C9.11093 22.0004 8.98081 21.9745 8.85941 21.9242C8.73801 21.8738 8.62772 21.8001 8.53485 21.7071L2.29285 15.4641C2.10538 15.2766 2.00006 15.0223 2.00006 14.7571C2.00006 14.4919 2.10538 14.2376 2.29285 14.0501L3.70685 12.6361L11.3638 20.2931L9.94985 21.7071ZM21.7068 9.9491L20.2928 11.3641L12.6358 3.7071L14.0498 2.2931C14.1427 2.20013 14.253 2.12637 14.3744 2.07604C14.4958 2.02572 14.6259 1.99982 14.7573 1.99982C14.8888 1.99982 15.0189 2.02572 15.1403 2.07604C15.2617 2.12637 15.372 2.20013 15.4648 2.2931L21.7068 8.5361C21.894 8.72359 21.9991 8.97768 21.9991 9.2426C21.9991 9.50752 21.894 9.76162 21.7068 9.9491Z" fill="#01B2C6"/>
</svg>
