<svg width="24" height="24" viewBox="0 0 24 24" fill="none" xmlns="http://www.w3.org/2000/svg">
<circle cx="12" cy="12" r="12" fill="#01B2C6" fill-opacity="0.15"/>
<g clip-path="url(#clip0_606_5329)">
<path d="M18 20.0004H16.6667V16.6384C16.6661 16.1157 16.4583 15.6146 16.0887 15.245C15.7191 14.8755 15.218 14.6676 14.6953 14.6671H9.30467C8.782 14.6676 8.28089 14.8755 7.91131 15.245C7.54173 15.6146 7.33386 16.1157 7.33333 16.6384V20.0004H6V16.6384C6.00106 15.7623 6.34957 14.9223 6.96908 14.3028C7.5886 13.6833 8.42854 13.3348 9.30467 13.3337H14.6953C15.5715 13.3348 16.4114 13.6833 17.0309 14.3028C17.6504 14.9223 17.9989 15.7623 18 16.6384V20.0004Z" fill="#01B2C6"/>
<path d="M12 12C11.2089 12 10.4355 11.7654 9.77772 11.3259C9.11992 10.8864 8.60723 10.2616 8.30448 9.53074C8.00173 8.79983 7.92252 7.99556 8.07686 7.21964C8.2312 6.44372 8.61216 5.73098 9.17157 5.17157C9.73099 4.61216 10.4437 4.2312 11.2196 4.07686C11.9956 3.92252 12.7998 4.00173 13.5307 4.30448C14.2616 4.60723 14.8864 5.11992 15.3259 5.77772C15.7654 6.43552 16 7.20888 16 8C15.9989 9.06054 15.5772 10.0773 14.8273 10.8273C14.0773 11.5772 13.0605 11.9989 12 12ZM12 5.33334C11.4726 5.33334 10.957 5.48973 10.5185 5.78275C10.08 6.07577 9.73816 6.49224 9.53632 6.97951C9.33449 7.46678 9.28168 8.00296 9.38457 8.52024C9.48747 9.03753 9.74144 9.51268 10.1144 9.88562C10.4873 10.2586 10.9625 10.5125 11.4798 10.6154C11.997 10.7183 12.5332 10.6655 13.0205 10.4637C13.5078 10.2618 13.9242 9.92005 14.2173 9.48152C14.5103 9.04299 14.6667 8.52742 14.6667 8C14.6667 7.29276 14.3857 6.61448 13.8856 6.11438C13.3855 5.61429 12.7072 5.33334 12 5.33334Z" fill="#01B2C6"/>
</g>
<defs>
<clipPath id="clip0_606_5329">
<rect width="16" height="16" fill="white" transform="translate(4 4)"/>
</clipPath>
</defs>
</svg>
